<svg id="binoculars" xmlns="http://www.w3.org/2000/svg" width="293.8" height="56.1" viewBox="-287.8 473 293.8 56.1"><style>.st0{fill:#ED1F24;}</style><path d="M-264.6 507.8v7.7c0 5.7-2.8 8.5-8.5 8.5h-9.7v-45.8h9.6c5.7 0 8.5 2.8 8.5 8.5v6.7c0 4.1-1.4 6.2-4 7.1 2.6 1.1 4.1 3.2 4.1 7.3zm-8.8-24.9h-4.3v15.4h3.9c2.6 0 3.9-1.2 3.9-3.9v-8.1c0-2.3-1.2-3.4-3.5-3.4zm-4.3 36.4h4.4c2.4 0 3.5-1.1 3.5-3.5v-9c0-2.6-1.2-3.9-3.9-3.9h-4v16.4zm23.1 4.7h-5.2v-45.8h5.2V524zm19.9-45.8h5V524h-6.5l-8.2-35.8V524h-5v-45.8h7.2l7.6 33.2-.1-33.2zm20.3 46.2h-2c-5.7 0-8.5-2.8-8.5-8.5v-29.6c0-5.7 2.8-8.5 8.5-8.5h2c5.7 0 8.5 2.8 8.5 8.5v29.6c0 5.7-2.8 8.5-8.5 8.5zm-.2-41.9h-1.6c-2.4 0-3.5 1.1-3.5 3.5v30.1c0 2.4 1.1 3.5 3.5 3.5h1.6c2.4 0 3.5-1.1 3.5-3.5V486c0-2.3-1.1-3.5-3.5-3.5zm32.2 23.9v9.5c0 5.7-2.8 8.5-8.5 8.5h-1.7c-5.7 0-8.5-2.8-8.5-8.5v-29.6c0-5.7 2.8-8.5 8.5-8.5h1.7c5.6 0 8.4 2.8 8.4 8.4v8.2h-5.1V486c0-2.4-1.1-3.5-3.5-3.5h-1.3c-2.4 0-3.5 1.1-3.5 3.5v30.1c0 2.4 1.1 3.5 3.5 3.5h1.4c2.4 0 3.5-1.1 3.5-3.5v-9.8h5.1v.1zm23.1 9.5c0 5.7-2.8 8.5-8.5 8.5h-1.6c-5.7 0-8.5-2.8-8.5-8.5v-37.7h5.2v38c0 2.4 1.1 3.5 3.5 3.5h1.2c2.4 0 3.5-1.1 3.5-3.5v-38h5.2v37.7zm10.2-37.7v41h8.6v4.8h-13.9v-45.8h5.3zm31.3 45.8h-5.2l-1.1-7.7h-8.4l-1.1 7.7h-5l7.1-46h6.7l7 46zm-14.1-12.4h7.1l-3.5-25.3-3.6 25.3zm36-3.1V524h-5.2v-15.3c0-2.8-1.2-4-4-4h-3.9V524h-5.2v-45.8h9.8c5.7 0 8.5 2.8 8.5 8.5v8.5c0 4.1-1.4 6.2-4.1 7.2 2.9.8 4.1 2.6 4.1 6.1zm-8.7-25.6h-4.3v17.2h3.9c2.6 0 3.9-1.2 3.9-3.9v-9.8c-.1-2.3-1.2-3.5-3.5-3.5zm31.7 26.3v6.7c0 5.7-2.8 8.5-8.5 8.5h-1.4c-5.6 0-8.4-2.8-8.4-8.4v-9.6h5.1v9.8c0 2.4 1.1 3.5 3.5 3.5h1.1c2.4 0 3.5-1.1 3.5-3.5v-6.9c0-2.3-.8-3.3-2.3-4.4l-6.4-4.7c-3.4-2.4-4.4-4.8-4.4-8.5v-5.5c0-5.7 2.8-8.5 8.5-8.5h1.3c5.6 0 8.4 2.8 8.4 8.4v8.2H-78v-8.4c0-2.4-1.1-3.5-3.5-3.5h-.9c-2.4 0-3.5 1.1-3.5 3.5v5.8c0 2.3.9 3.3 2.4 4.4l6.4 4.6c3.2 2.4 4.2 4.6 4.2 8.5z"/><path class="st0" d="M-28.6 506.6h-3.5c-.6 0-1.2-.5-1.2-1.2v-15.1c0-.6.5-1.2 1.2-1.2h3.5c.6 0 1.2.5 1.2 1.2v15.1c-.1.7-.6 1.2-1.2 1.2zm-8.9-18.9l.6-4.8c.3-.3.4-.7.5-1.1.5-.6.9-1.1 1.6-1.8-5.4-1.3-10.4-1.3-15.8 0 .8.8 1.3 1.3 1.8 2 .1.3.2.6.4.8l.6 4.9h-8.6c-.9 0-1.6.6-1.6 1.3v16.4h-1.3l-1.4 10.8c-.2-.1-.5-.2-.7-.2-.3 1.7-.4 3.5-.4 5.2 6.6 1.8 12.9 1.8 19.5 0 0-1.7-.1-3.5-.4-5.2-.1 0-.3.1-.4.1l-.9-7.5h6.1c.9 0 1.6-.6 1.6-1.3V489c.1-.7-.5-1.2-1.2-1.3zm14.2 0l-.6-4.8c-.3-.3-.4-.7-.5-1.1-.5-.6-.9-1.1-1.6-1.8 5.4-1.3 10.4-1.3 15.8 0-.8.8-1.3 1.3-1.8 2-.1.3-.2.6-.4.8l-.6 4.9h8.6c.9 0 1.6.6 1.6 1.3v16.4h1.3l1.4 10.8c.2-.1.5-.2.7-.2.3 1.7.4 3.5.4 5.2-6.6 1.8-12.9 1.8-19.5 0 0-1.7.1-3.5.4-5.2.1 0 .3.1.4.1l.9-7.5h-6.1c-.9 0-1.6-.6-1.6-1.3V489c-.1-.7.4-1.2 1.2-1.3z"/><path class="st0" d="M-40.3 502.4h19.8v1.4h-19.8v-1.4zm0-11.1h19.8v5.1h-19.8v-5.1z"/></svg>